<svg xmlns="http://www.w3.org/2000/svg" width="48" height="48" style="isolation:isolate"><defs><clipPath id="a"><path d="M0 0h48v48H0z"/></clipPath></defs><g clip-path="url(#a)"><path fill="none" d="M0 0h48v48H0z" style="fill:#000"/><path d="M4 0h40c2.208 0 4 1.792 4 4v40c0 2.208-1.792 4-4 4H4c-2.208 0-4-1.792-4-4V4c0-2.208 1.792-4 4-4" style="stroke:none;fill:#2e2e32;stroke-miterlimit:10"/><path fill="#E1E1E6" d="M19 27V15a2 2 0 0 0-2-2h-4v17c0 2.76 2.24 5 5 5h17v-4a2 2 0 0 0-2-2H21a2 2 0 0 1-2-2"/><path fill="#93DDFA" d="M24 22v-6l5 3 3 5h-6a2 2 0 0 1-2-2"/><path fill="#FFA94D" d="M35 13H21l14 14z"/><path fill="#F7C95C" d="M32 16h-8l8 8z"/></g></svg>